<?xml version="1.0" standalone="no"?>
<!DOCTYPE svg PUBLIC "-//W3C//DTD SVG 20010904//EN"
 "http://www.w3.org/TR/2001/REC-SVG-20010904/DTD/svg10.dtd">
<svg version="1.0" xmlns="http://www.w3.org/2000/svg"
 width="1080.000000pt" height="1080.000000pt" viewBox="0 0 1080.000000 1080.000000"
 preserveAspectRatio="xMidYMid meet">
<metadata>
Created by potrace 1.16, written by Peter Selinger 2001-2019
</metadata>
<g transform="translate(0.000000,1080.000000) scale(0.100000,-0.100000)"
fill="#fff" stroke="none">
<path d="M5127 9488 c-33 -565 -394 -1099 -912 -1348 -241 -115 -494 -168
-814 -169 -83 -1 -195 -14 -316 -37 -470 -91 -920 -357 -1227 -724 -270 -322
-444 -715 -493 -1114 -12 -100 -19 -315 -15 -523 l0 -23 265 0 265 0 0 163 c0
209 15 353 50 493 155 616 650 1084 1273 1205 64 13 181 23 315 29 296 13 475
44 692 118 466 160 889 500 1138 915 26 42 49 77 53 77 3 0 16 -19 29 -42 13
-24 49 -79 78 -123 337 -494 864 -826 1459 -919 56 -9 198 -20 315 -26 134 -6
251 -16 315 -29 623 -121 1118 -589 1273 -1205 35 -140 50 -284 50 -493 l0
-163 265 0 265 0 0 23 c4 208 -3 423 -15 523 -64 521 -339 1025 -745 1367
-225 189 -513 346 -779 423 -171 50 -374 84 -504 85 -330 1 -579 53 -822 169
-518 249 -879 783 -912 1348 l-6 112 -267 0 -267 0 -6 -112z"/>
<path d="M2452 6017 l-212 -212 1578 -1578 1577 -1577 213 213 213 213 -822
827 -821 827 1654 0 1653 0 293 293 c160 160 292 295 292 300 0 4 -1011 7
-2248 7 l-2247 0 -130 131 -130 131 2512 -4 2513 -3 110 110 110 110 -212 212
-213 213 -2735 0 -2735 0 -213 -213z"/>
<path d="M2045 4790 l-190 -190 1773 -1773 1772 -1772 1772 1772 1773 1773
-190 190 -190 190 -1582 -1582 -1583 -1583 -1583 1583 -1582 1582 -190 -190z"/>
</g>
</svg>
